HIERARCHY
ROOT Hips
{
	OFFSET 0.000000 71.427986 0.000000
	CHANNELS 6 Xposition Yposition Zposition Xrotation Yrotation Zrotation
	JOINT Pelvis
	{
		OFFSET 0.000000 0.000000 0.000000
		CHANNELS 3 Xrotation Yrotation Zrotation
		JOINT LeftUpLeg
		{
			OFFSET 6.797100 -2.508499 -1.318700
			CHANNELS 3 Xrotation Yrotation Zrotation
			JOINT LeftLeg
			{
				OFFSET 0.069008 -29.241863 0.690200
				CHANNELS 3 Xrotation Yrotation Zrotation
				JOINT LeftFoot
				{
					OFFSET -0.069008 -29.568123 -0.266800
					CHANNELS 3 Xrotation Yrotation Zrotation
					JOINT LeftToeBase
					{
						OFFSET 3.145500 -8.631000 16.059900
						CHANNELS 3 Xrotation Yrotation Zrotation
						End Site
						{
							OFFSET 0.000000 18.501587 0.000000
						}
					}
				}
			}
			JOINT Left_ShortSleeve
			{
				OFFSET 0.265923 -10.480953 1.153800
				CHANNELS 3 Xrotation Yrotation Zrotation
				End Site
				{
					OFFSET 1.725763 19.823879 0.000000
				}
			}
		}
		JOINT RightUpLeg
		{
			OFFSET -6.797100 -2.508499 -1.318700
			CHANNELS 3 Xrotation Yrotation Zrotation
			JOINT RightLeg
			{
				OFFSET -0.082453 -29.241932 0.688000
				CHANNELS 3 Xrotation Yrotation Zrotation
				JOINT RightFoot
				{
					OFFSET 0.082453 -29.568058 -0.264600
					CHANNELS 3 Xrotation Yrotation Zrotation
					JOINT RightToeBase
					{
						OFFSET -3.115300 -8.682800 16.113400
						CHANNELS 3 Xrotation Yrotation Zrotation
						End Site
						{
							OFFSET 0.000000 18.567114 0.000000
						}
					}
				}
			}
			JOINT Right_ShortSleeve
			{
				OFFSET -0.265923 -10.480953 1.153800
				CHANNELS 3 Xrotation Yrotation Zrotation
				End Site
				{
					OFFSET -1.725766 19.823910 0.000000
				}
			}
		}
	}
	JOINT Spine
	{
		OFFSET 0.000000 13.368103 0.470500
		CHANNELS 3 Xrotation Yrotation Zrotation
		JOINT Spine1
		{
			OFFSET 0.147000 13.837402 0.538800
			CHANNELS 3 Xrotation Yrotation Zrotation
			JOINT Spine2
			{
				OFFSET 0.168000 16.242897 -1.435500
				CHANNELS 3 Xrotation Yrotation Zrotation
				JOINT Neck
				{
					OFFSET 0.217200 18.631500 -1.679100
					CHANNELS 3 Xrotation Yrotation Zrotation
					JOINT Head
					{
						OFFSET 0.000000 6.599396 1.385900
						CHANNELS 3 Xrotation Yrotation Zrotation
						JOINT Hat
						{
							OFFSET -0.532200 27.220596 -10.096100
							CHANNELS 3 Xrotation Yrotation Zrotation
							End Site
							{
								OFFSET 0.000000 22.029861 0.000000
							}
						}
						JOINT HairD
						{
							OFFSET -10.777400 17.437393 -1.325900
							CHANNELS 3 Xrotation Yrotation Zrotation
							JOINT HairD1
							{
								OFFSET -3.290299 -11.051193 1.062200
								CHANNELS 3 Xrotation Yrotation Zrotation
								End Site
								{
									OFFSET 0.000000 11.579437 0.000000
								}
							}
						}
						JOINT HairB
						{
							OFFSET -10.777400 17.437393 1.467900
							CHANNELS 3 Xrotation Yrotation Zrotation
							JOINT HairB1
							{
								OFFSET -1.561200 -12.956299 3.590200
								CHANNELS 3 Xrotation Yrotation Zrotation
								End Site
								{
									OFFSET 0.000000 13.534866 0.000000
								}
							}
						}
						JOINT HairA
						{
							OFFSET 9.713100 17.437393 1.467900
							CHANNELS 3 Xrotation Yrotation Zrotation
							JOINT HairA1
							{
								OFFSET 1.561200 -12.956299 3.590200
								CHANNELS 3 Xrotation Yrotation Zrotation
								End Site
								{
									OFFSET 0.000000 13.534866 0.000000
								}
							}
						}
						JOINT HairC
						{
							OFFSET 9.713100 17.437393 -1.325900
							CHANNELS 3 Xrotation Yrotation Zrotation
							JOINT HairC1
							{
								OFFSET 3.290300 -11.051193 1.062200
								CHANNELS 3 Xrotation Yrotation Zrotation
								End Site
								{
									OFFSET 0.000000 11.579437 0.000000
								}
							}
						}
					}
				}
				JOINT LeftShoulder
				{
					OFFSET 5.101800 15.108002 -2.763700
					CHANNELS 3 Xrotation Yrotation Zrotation
					JOINT LeftArm
					{
						OFFSET 9.825497 2.506317 -1.597400
						CHANNELS 3 Xrotation Yrotation Zrotation
						JOINT LeftForeArm
						{
							OFFSET 21.966244 0.000000 0.000000
							CHANNELS 3 Xrotation Yrotation Zrotation
							JOINT LeftHand
							{
								OFFSET 33.879036 0.000000 0.000000
								CHANNELS 3 Xrotation Yrotation Zrotation
								JOINT LeftHandThumb1
								{
									OFFSET 6.715286 -2.359680 3.363841
									CHANNELS 3 Xrotation Yrotation Zrotation
									JOINT LeftHandThumb2
									{
										OFFSET 2.507072 -1.447464 1.447461
										CHANNELS 3 Xrotation Yrotation Zrotation
										JOINT LeftHandThumb3
										{
											OFFSET 2.898338 -1.673355 1.673357
											CHANNELS 3 Xrotation Yrotation Zrotation
											End Site
											{
												OFFSET -0.295959 3.727692 -0.131651
											}
										}
									}
								}
								JOINT LeftHandIndex1
								{
									OFFSET 14.190811 -0.254547 3.840278
									CHANNELS 3 Xrotation Yrotation Zrotation
									JOINT LeftHandIndex2
									{
										OFFSET 3.551727 0.000000 -0.000000
										CHANNELS 3 Xrotation Yrotation Zrotation
										JOINT LeftHandIndex3
										{
											OFFSET 2.894196 0.000000 0.000000
											CHANNELS 3 Xrotation Yrotation Zrotation
											End Site
											{
												OFFSET -1.000603 2.690872 0.366626
											}
										}
									}
								}
								JOINT LeftHandMiddle1
								{
									OFFSET 13.776489 0.000000 0.000000
									CHANNELS 3 Xrotation Yrotation Zrotation
									JOINT LeftHandMiddle2
									{
										OFFSET 3.438232 0.000000 0.000000
										CHANNELS 3 Xrotation Yrotation Zrotation
										JOINT LeftHandMiddle3
										{
											OFFSET 3.691551 0.000000 0.000000
											CHANNELS 3 Xrotation Yrotation Zrotation
											End Site
											{
												OFFSET -1.082298 3.499527 0.457670
											}
										}
									}
								}
								JOINT LeftHandRing1
								{
									OFFSET 13.966164 -0.268127 -3.067488
									CHANNELS 3 Xrotation Yrotation Zrotation
									JOINT LeftHandRing2
									{
										OFFSET 3.162567 0.000000 0.000000
										CHANNELS 3 Xrotation Yrotation Zrotation
										JOINT LeftHandRing3
										{
											OFFSET 3.324348 0.000000 0.000000
											CHANNELS 3 Xrotation Yrotation Zrotation
											End Site
											{
												OFFSET -0.861900 3.184998 0.405154
											}
										}
									}
								}
								JOINT LeftHandPinky1
								{
									OFFSET 13.131393 -0.168503 -5.746925
									CHANNELS 3 Xrotation Yrotation Zrotation
									JOINT LeftHandPinky2
									{
										OFFSET 2.849182 0.000000 0.000000
										CHANNELS 3 Xrotation Yrotation Zrotation
										JOINT LeftHandPinky3
										{
											OFFSET 2.805038 0.000000 0.000000
											CHANNELS 3 Xrotation Yrotation Zrotation
											End Site
											{
												OFFSET -0.882500 2.642609 0.325652
											}
										}
									}
								}
							}
							JOINT Left_Sleeve
							{
								OFFSET 6.592125 -0.646545 0.805568
								CHANNELS 3 Xrotation Yrotation Zrotation
								End Site
								{
									OFFSET -0.000179 20.275787 -0.000000
								}
							}
						}
					}
				}
				JOINT RightShoulder
				{
					OFFSET -5.731700 15.108002 -2.763700
					CHANNELS 3 Xrotation Yrotation Zrotation
					JOINT RightArm
					{
						OFFSET -9.825497 2.506317 -1.597400
						CHANNELS 3 Xrotation Yrotation Zrotation
						JOINT RightForeArm
						{
							OFFSET -21.966242 0.000000 0.000000
							CHANNELS 3 Xrotation Yrotation Zrotation
							JOINT RightHand
							{
								OFFSET -33.879032 0.000000 0.000000
								CHANNELS 3 Xrotation Yrotation Zrotation
								JOINT RightHandThumb1
								{
									OFFSET -6.715286 -2.359680 3.363841
									CHANNELS 3 Xrotation Yrotation Zrotation
									JOINT RightHandThumb2
									{
										OFFSET -2.507072 -1.447464 1.447461
										CHANNELS 3 Xrotation Yrotation Zrotation
										JOINT RightHandThumb3
										{
											OFFSET -2.898338 -1.673355 1.673357
											CHANNELS 3 Xrotation Yrotation Zrotation
											End Site
											{
												OFFSET 0.295959 3.727692 -0.131651
											}
										}
									}
								}
								JOINT RightHandIndex1
								{
									OFFSET -14.190811 -0.254547 3.840278
									CHANNELS 3 Xrotation Yrotation Zrotation
									JOINT RightHandIndex2
									{
										OFFSET -3.551727 0.000000 -0.000000
										CHANNELS 3 Xrotation Yrotation Zrotation
										JOINT RightHandIndex3
										{
											OFFSET -2.894196 0.000000 0.000000
											CHANNELS 3 Xrotation Yrotation Zrotation
											End Site
											{
												OFFSET 1.000603 2.690872 0.366626
											}
										}
									}
								}
								JOINT RightHandMiddle1
								{
									OFFSET -13.776489 0.000000 0.000000
									CHANNELS 3 Xrotation Yrotation Zrotation
									JOINT RightHandMiddle2
									{
										OFFSET -3.438232 0.000000 0.000000
										CHANNELS 3 Xrotation Yrotation Zrotation
										JOINT RightHandMiddle3
										{
											OFFSET -3.691551 0.000000 0.000000
											CHANNELS 3 Xrotation Yrotation Zrotation
											End Site
											{
												OFFSET 1.082298 3.499527 0.457670
											}
										}
									}
								}
								JOINT RightHandRing1
								{
									OFFSET -13.966164 -0.268127 -3.067488
									CHANNELS 3 Xrotation Yrotation Zrotation
									JOINT RightHandRing2
									{
										OFFSET -3.162567 0.000000 0.000000
										CHANNELS 3 Xrotation Yrotation Zrotation
										JOINT RightHandRing3
										{
											OFFSET -3.324348 0.000000 0.000000
											CHANNELS 3 Xrotation Yrotation Zrotation
											End Site
											{
												OFFSET 0.861900 3.184998 0.405154
											}
										}
									}
								}
								JOINT RightHandPinky1
								{
									OFFSET -13.131393 -0.168503 -5.746925
									CHANNELS 3 Xrotation Yrotation Zrotation
									JOINT RightHandPinky2
									{
										OFFSET -2.849182 0.000000 0.000000
										CHANNELS 3 Xrotation Yrotation Zrotation
										JOINT RightHandPinky3
										{
											OFFSET -2.805038 0.000000 0.000000
											CHANNELS 3 Xrotation Yrotation Zrotation
											End Site
											{
												OFFSET 0.882500 2.642609 0.325652
											}
										}
									}
								}
							}
							JOINT Right_Sleeve
							{
								OFFSET -6.592125 -0.646545 0.805568
								CHANNELS 3 Xrotation Yrotation Zrotation
								End Site
								{
									OFFSET 0.000179 20.275787 -0.000000
								}
							}
						}
					}
				}
				JOINT Bind_Right_JacketString
				{
					OFFSET -3.534800 11.969597 7.200700
					CHANNELS 3 Xrotation Yrotation Zrotation
					JOINT Bind_Right_JacketString1
					{
						OFFSET -0.319900 -6.102600 2.794100
						CHANNELS 3 Xrotation Yrotation Zrotation
						End Site
						{
							OFFSET 0.000000 6.719452 0.000000
						}
					}
				}
				JOINT Bind_Left_JacketString
				{
					OFFSET 2.904800 11.969597 7.200700
					CHANNELS 3 Xrotation Yrotation Zrotation
					JOINT Bind_Left_JacketString1
					{
						OFFSET 0.364800 -5.904503 3.186800
						CHANNELS 3 Xrotation Yrotation Zrotation
						End Site
						{
							OFFSET 0.000000 6.719513 0.000000
						}
					}
				}
				JOINT HairE
				{
					OFFSET 5.915200 17.612701 -11.592200
					CHANNELS 3 Xrotation Yrotation Zrotation
					JOINT HairE1
					{
						OFFSET 0.289200 -7.171898 -1.284500
						CHANNELS 3 Xrotation Yrotation Zrotation
						End Site
						{
							OFFSET 0.000000 7.291756 0.000000
						}
					}
				}
				JOINT HairF
				{
					OFFSET -0.864800 17.612701 -11.592200
					CHANNELS 3 Xrotation Yrotation Zrotation
					JOINT HairF1
					{
						OFFSET 0.000000 -14.087097 -2.127501
						CHANNELS 3 Xrotation Yrotation Zrotation
						End Site
						{
							OFFSET 0.000000 14.246841 0.000000
						}
					}
				}
				JOINT HairG
				{
					OFFSET -8.087700 17.612701 -11.592200
					CHANNELS 3 Xrotation Yrotation Zrotation
					JOINT HairG1
					{
						OFFSET -0.293600 -6.081398 -0.910100
						CHANNELS 3 Xrotation Yrotation Zrotation
						End Site
						{
							OFFSET 0.000000 6.156120 0.000000
						}
					}
				}
			}
		}
	}
	JOINT Pouch
	{
		OFFSET 0.000000 4.394501 10.847300
		CHANNELS 3 Xrotation Yrotation Zrotation
		End Site
		{
			OFFSET 0.000000 21.880577 0.000000
		}
	}
	JOINT Bag
	{
		OFFSET -13.229000 4.813004 -0.593300
		CHANNELS 3 Xrotation Yrotation Zrotation
		End Site
		{
			OFFSET 0.000000 21.880577 0.000000
		}
	}
	JOINT OccupyGuyFacialAnim_Joint
	{
		OFFSET 1.000000 -70.206398 -1.655000
		CHANNELS 3 Xrotation Yrotation Zrotation
		End Site
		{
			OFFSET 0.000000 21.880577 0.000000
		}
	}
}
MOTION
Frames: 4
Frame Time: 0.033333
-0.258778 62.803314 0.981980 8.640363 -10.051948 -6.789091 0.000001 0.000000 -0.000000 -57.002631 -1.784453 12.082713 41.276636 10.054451 3.619818 -1.752258 1.163613 -3.255936 0.000001 0.000000 0.000000 -0.000002 -0.000000 -0.000000 -43.889399 -6.241938 7.521480 53.002760 -4.202136 6.099525 -18.137586 1.106369 -6.079024 0.000000 0.000000 0.000000 0.000004 0.000000 -0.000000 23.028225 -3.427288 5.332423 5.496446 -0.087033 0.734160 5.490763 -0.145963 0.714210 -0.220387 1.324462 1.208822 -29.796577 14.256236 1.085358 0.000001 -0.000000 -0.000000 0.000001 -0.000000 -0.000000 0.000001 -0.000000 -0.000000 0.000001 -0.000000 -0.000000 0.000001 0.000000 0.000000 0.000001 -0.000000 -0.000000 0.000001 0.000000 0.000000 0.000001 -0.000000 -0.000000 0.000001 -0.000000 -0.000000 2.192195 -23.765792 -14.875377 -22.370369 -11.439718 -45.516196 -0.000010 -16.771663 -0.000011 17.604413 0.331837 3.646895 4.335244 5.394170 6.015642 15.221570 9.120266 7.739221 -0.000000 -0.000002 -0.000001 -1.122562 -0.702918 -26.324273 0.461775 2.281645 -22.880104 -0.000001 -0.000001 0.000001 0.230748 4.581093 -37.817128 0.366369 2.041040 -20.350875 -0.000003 0.000000 0.000001 2.612120 7.406577 -42.451330 0.593898 2.572106 -25.999419 -0.000001 -0.000002 0.000001 0.005105 5.189774 -46.615809 0.370017 2.050848 -20.452913 -0.000001 -0.000001 0.000001 -0.000003 -0.000001 0.000000 4.812585 14.657866 19.212409 -21.254994 40.498709 47.661548 -0.000012 31.368057 0.000022 -18.058359 24.259493 -8.745259 0.152522 -3.899550 -9.320616 16.592230 -22.042264 -5.392338 0.000000 -0.000001 0.000002 -0.171612 0.956480 13.915734 0.386812 -1.860029 23.493870 -0.000001 -0.000004 -0.000000 -0.629982 -2.047561 26.827448 0.414644 -1.922763 24.337304 0.000004 -0.000002 0.000004 -1.080889 -2.718678 40.958787 0.751409 -2.538549 32.972649 0.000002 0.000003 0.000002 -2.171372 -2.740131 37.070196 1.677915 -3.581178 50.198434 0.000000 0.000001 -0.000001 0.000001 0.000000 -0.000001 0.000001 0.000001 -0.000000 -0.000001 0.000001 0.000000 0.000001 0.000001 -0.000000 0.000001 0.000001 -0.000000 0.000001 0.000001 -0.000000 -0.000001 0.000001 -0.000000 0.000001 0.000001 -0.000000 0.000001 0.000001 -0.000000 0.000001 0.000001 -0.000000 -0.000001 0.000001 -0.000000 0.000001 0.000000 -0.000000 0.000001 0.000000 -0.000000 0.000001 0.000000 -0.000000 
0.024082 62.992699 -2.383583 9.128296 -11.166931 -5.994169 -0.000000 -0.000001 -0.000000 -55.407133 -1.467067 12.611161 60.037103 10.014932 3.610082 -15.652859 -3.497335 -6.343003 0.000000 -0.000000 0.000000 -0.000001 0.000000 -0.000000 -46.160864 -5.595033 7.801955 49.314020 -5.782867 6.149616 -12.481791 3.234020 -6.693592 0.000000 -0.000001 0.000000 -0.000002 0.000000 -0.000000 23.718646 -4.695084 5.202419 5.859679 -0.136447 0.660243 5.820542 -0.197967 0.641930 -0.059195 0.984110 1.171081 -26.792102 16.968925 -0.321337 0.000000 0.000000 0.000000 0.000000 0.000000 0.000000 0.000000 0.000000 0.000000 0.000000 0.000000 0.000000 -0.000001 0.000000 -0.000000 0.000000 0.000000 0.000000 -0.000001 0.000000 -0.000000 0.000000 0.000000 0.000000 0.000000 0.000000 0.000000 2.053662 -24.598815 -13.978987 -28.487319 -8.391903 -47.818110 -0.000016 -17.469901 0.000002 22.236096 4.751927 -0.047029 4.335242 5.394168 6.015647 15.221573 9.120269 7.739224 -0.000000 -0.000001 -0.000000 -1.082079 -0.603271 -27.136999 0.494905 2.358517 -23.698366 0.000001 -0.000000 0.000002 0.275347 4.685423 -38.801089 0.396102 2.119399 -21.169497 0.000000 0.000000 0.000002 2.713594 7.468382 -43.667483 0.638862 2.662242 -26.984102 0.000001 -0.000000 -0.000001 0.098326 5.344303 -48.127511 0.414399 2.166022 -21.658952 -0.000002 -0.000001 0.000003 -0.000001 -0.000001 0.000001 4.954878 13.570609 19.219114 -21.738255 39.443034 46.189171 -0.000001 29.158583 0.000011 -13.470767 25.142865 -5.565749 0.152510 -3.899559 -9.320570 16.592232 -22.042262 -5.392345 -0.000000 -0.000002 -0.000000 -0.162576 0.920595 14.370015 0.423479 -1.942141 24.598872 -0.000001 -0.000001 -0.000002 -0.635396 -2.092963 27.383193 0.460438 -2.020863 25.667655 -0.000001 0.000003 0.000003 -1.083199 -2.780077 41.654332 0.825283 -2.648839 34.605112 0.000004 -0.000003 -0.000002 -2.126726 -2.798219 37.971323 1.845638 -3.714264 52.834365 -0.000001 0.000001 0.000001 0.000003 0.000000 0.000001 -0.000000 0.000000 -0.000000 0.000001 0.000001 -0.000000 -0.000000 0.000000 -0.000000 -0.000000 0.000000 -0.000000 -0.000000 0.000000 -0.000000 0.000001 0.000001 -0.000000 -0.000000 0.000000 -0.000000 -0.000000 0.000000 -0.000000 -0.000000 0.000000 -0.000000 0.000001 0.000001 -0.000000 -0.000000 -0.000001 -0.000000 -0.000000 -0.000001 -0.000000 -0.000000 -0.000001 -0.000000 
0.766129 63.390076 -6.394893 9.742980 -12.335030 -4.905808 0.000000 -0.000001 0.000000 -45.796473 1.542373 12.342765 67.400361 9.610493 3.606481 -24.956275 -4.296960 -10.446954 0.000001 0.000000 0.000000 0.000003 0.000000 -0.000000 -48.765218 -4.136813 7.709629 45.729674 -7.149746 6.225231 -10.618312 3.243961 -6.832049 -0.000000 0.000001 0.000000 -0.000001 0.000000 -0.000000 23.832058 -5.201755 4.317073 5.957539 -0.284422 0.463590 5.904722 -0.348008 0.451441 0.287133 0.779099 0.961769 -22.484259 18.247750 -2.813477 0.000001 0.000000 -0.000000 0.000001 0.000000 -0.000000 0.000001 0.000000 -0.000000 0.000001 0.000000 -0.000000 0.000001 0.000000 -0.000000 0.000001 0.000000 -0.000000 0.000001 0.000000 -0.000000 0.000001 0.000000 -0.000000 0.000001 0.000000 -0.000000 1.933995 -25.558607 -13.035242 -32.258447 -7.888515 -48.541745 0.000008 -19.416493 -0.000011 33.122480 11.790791 -9.868799 4.335245 5.394166 6.015644 15.221570 9.120264 7.739223 -0.000001 0.000002 0.000002 -0.964101 -0.339181 -29.366791 0.591348 2.566863 -25.942348 0.000002 -0.000000 -0.000004 0.406026 4.964050 -41.473093 0.483285 2.331919 -23.414571 0.000001 0.000000 0.000001 2.991244 7.624083 -46.928109 0.768682 2.902831 -29.657593 -0.000000 0.000001 -0.000003 0.363457 5.737334 -52.116246 0.545192 2.469854 -24.892003 0.000001 0.000000 -0.000001 0.000002 -0.000000 -0.000000 5.195494 12.285045 19.342128 -23.330564 36.730012 46.000562 -0.000005 26.924882 0.000000 -4.713605 29.202791 0.148709 0.152520 -3.899568 -9.320596 16.592229 -22.042264 -5.392364 -0.000002 0.000001 0.000003 -0.136586 0.823521 15.602990 0.532049 -2.163487 27.629375 0.000002 -0.000001 -0.000002 -0.647383 -2.216130 28.872504 0.596053 -2.281504 29.279491 -0.000004 0.000001 -0.000001 -1.084512 -2.944255 43.488088 1.038506 -2.933591 38.981583 0.000005 -0.000002 -0.000003 -2.007392 -2.944717 40.295705 2.304950 -4.020594 59.635768 -0.000001 -0.000001 0.000000 0.000002 0.000003 -0.000001 -0.000001 -0.000002 0.000000 0.000001 -0.000001 0.000001 -0.000001 -0.000002 -0.000000 -0.000001 -0.000002 -0.000000 -0.000001 -0.000002 0.000000 0.000001 -0.000001 0.000001 -0.000001 -0.000002 -0.000000 -0.000001 -0.000002 -0.000000 -0.000001 -0.000002 0.000000 0.000001 -0.000001 0.000001 0.000000 -0.000001 0.000000 0.000000 -0.000001 0.000000 0.000000 -0.000001 0.000000 
1.621608 63.741470 -10.747570 10.387583 -13.453258 -3.680721 0.000001 0.000000 -0.000000 -32.466625 6.501085 9.919257 65.699351 9.231635 3.645303 -32.639773 -0.592963 -9.968446 0.000001 -0.000000 0.000000 -0.000005 0.000000 -0.000000 -52.245647 -3.107855 7.545418 44.721726 -7.781541 6.323169 -17.118980 0.106618 -7.766697 -0.000001 0.000002 0.000000 -0.000003 0.000000 -0.000000 23.503014 -5.369388 2.686222 5.838856 -0.530570 0.181834 5.785890 -0.587095 0.182207 0.679751 0.814750 0.718341 -19.220315 18.734676 -5.149522 -0.000001 0.000000 0.000000 -0.000001 0.000000 0.000000 -0.000001 0.000000 -0.000000 -0.000001 0.000000 0.000000 -0.000001 -0.000000 -0.000000 -0.000001 0.000000 0.000000 -0.000001 -0.000000 -0.000000 -0.000001 0.000000 0.000000 -0.000001 0.000000 0.000000 1.842519 -26.582951 -12.070686 -33.977428 -9.299217 -47.985634 -0.000003 -22.389218 -0.000008 43.293653 14.959079 -19.923177 4.335245 5.394167 6.015643 15.221573 9.120265 7.739221 -0.000000 -0.000000 -0.000001 -0.770309 0.029816 -32.701921 0.750484 2.870682 -29.296522 0.000001 0.000001 -0.000002 0.623614 5.361466 -45.414211 0.628970 2.642730 -26.770261 -0.000000 -0.000000 0.000002 3.406497 7.823087 -51.651810 0.980160 3.245724 -33.599500 -0.000001 0.000000 0.000000 0.783359 6.254516 -57.763688 0.764517 2.895508 -29.575344 -0.000001 0.000000 0.000001 -0.000002 0.000001 -0.000001 5.499641 10.881005 19.536214 -25.511598 32.816764 46.974780 0.000001 24.690967 -0.000003 1.758157 34.439255 3.651075 0.152504 -3.899548 -9.320594 16.592237 -22.042264 -5.392364 0.000004 0.000004 -0.000004 -0.094499 0.681570 17.420066 0.715762 -2.482774 32.158908 -0.000001 0.000001 0.000004 -0.658197 -2.398020 31.028699 0.825262 -2.648811 34.604597 0.000000 -0.000001 -0.000001 -1.074129 -3.181671 46.080766 1.384428 -3.315159 45.321611 0.000002 -0.000001 -0.000003 -1.834756 -3.136942 43.474963 2.985482 -4.347419 68.943062 -0.000001 -0.000001 0.000000 0.000001 -0.000001 0.000002 0.000001 0.000001 0.000000 0.000001 -0.000001 0.000001 0.000001 0.000001 -0.000000 0.000001 0.000001 -0.000000 0.000001 0.000001 0.000000 0.000001 -0.000001 0.000001 0.000001 0.000001 -0.000000 0.000001 0.000001 -0.000000 0.000001 0.000001 0.000000 0.000001 -0.000001 0.000001 0.000001 0.000000 -0.000000 0.000001 0.000000 -0.000000 0.000001 0.000000 -0.000000 
